<svg width="48" height="48" viewBox="0 0 48 48" fill="none" xmlns="http://www.w3.org/2000/svg">
<g clip-path="url(#clip0)">
<path d="M31.0001 26.0001C28.86 26.0001 26.9 24.7601 26 22.8201L24 18.5201L22.0001 22.8201C21.1001 24.7601 19.14 26.0001 17 26.0001H3.98004V38.5001C3.98004 39.2001 4.48004 39.8201 5.18004 39.9601L23.66 43.9601C23.76 43.9801 23.8601 44.0001 23.9801 44.0001H24H24.02C24.12 44.0001 24.2201 43.9801 24.3401 43.9601L42.8201 39.9601C43.5 39.8201 44 39.2001 44 38.5001V26.0001H31.0001Z" fill="#5856D6"/>
<path d="M46.4999 22H30.9959C30.4119 22 29.8819 21.662 29.6359 21.134L22.6459 6.13399C22.4039 5.61799 22.4779 5.01 22.834 4.564C23.1899 4.12 23.77 3.91 24.3239 4.03399L42.8179 8.034C43.3219 8.142 43.7339 8.502 43.9099 8.988L47.9099 19.988C48.0779 20.448 48.0099 20.96 47.7299 21.362C47.4479 21.762 46.9899 22 46.4999 22Z" fill="#5856D6"/>
<path d="M17.004 22.0002H1.49998C1.00998 22.0002 0.551984 21.7622 0.271983 21.3602C-0.0100167 20.9602 -0.0760167 20.4462 0.0919833 19.9862L4.09198 8.98619C4.26798 8.5022 4.67998 8.1422 5.18398 8.0342L23.678 4.0342C24.234 3.91019 24.812 4.1182 25.168 4.56419C25.524 5.0102 25.596 5.6182 25.356 6.1342L18.366 21.1342C18.118 21.6622 17.588 22.0002 17.004 22.0002Z" fill="#5856D6"/>
</g>
<defs>
<clipPath id="clip0">
<rect width="48" height="48" fill="white"/>
</clipPath>
</defs>
</svg>
