<svg width="48" height="48" viewBox="0 0 48 48" fill="none" xmlns="http://www.w3.org/2000/svg">
<path d="M21.1328 7.38823C21.1328 6.86871 20.7111 6.44706 20.1915 6.44706H19.4386V1.41176C19.4386 0.632094 18.8066 0 18.0268 0C17.2472 0 16.6151 0.632094 16.6151 1.41176V6.44706H11.9073V1.41176C11.9073 0.632094 11.2752 0 10.4955 0C9.7159 0 9.0838 0.632094 9.0838 1.41176V6.44706H8.33085C7.81133 6.44706 7.38968 6.86871 7.38968 7.38823V12.1195H21.1328V7.38823Z" fill="#5856D6"/>
<path d="M22.6856 33.3392C23.6973 33.3392 24.5209 32.5157 24.5209 31.504V16.7783C24.5209 15.7665 23.6973 14.943 22.6856 14.943C21.5729 14.943 6.32212 14.943 5.83667 14.943C4.82491 14.943 4.00137 15.7665 4.00137 16.7783V31.504C4.00137 32.5157 4.82491 33.3392 5.83667 33.3392H22.6856ZM17.4696 24.7002L15.8941 28.3538C15.5842 29.0738 14.7485 29.3982 14.039 29.0908C13.3228 28.782 12.9933 27.952 13.3021 27.2357L14.0277 25.5529H12.3486C11.338 25.5529 10.6499 24.5167 11.0526 23.5821L12.6282 19.9284C12.9369 19.2121 13.7671 18.8828 14.4832 19.1906C15.1995 19.4992 15.5289 20.3303 15.2202 21.0465L14.4946 22.7294H16.1736C17.1842 22.7294 17.8725 23.7655 17.4696 24.7002Z" fill="#5856D6"/>
<path d="M42.6482 13.0781C42.6482 12.5565 42.2254 12.1338 41.7039 12.1338H37.293C36.7715 12.1338 36.3487 12.5565 36.3487 13.0781V17.0442H42.6483V13.0781H42.6482Z" fill="#5856D6"/>
<path d="M43.5262 19.8766H35.4706C35.2099 19.8766 34.9981 20.0884 34.9981 20.3491V24.16C34.9981 25.8126 36.3384 27.1595 37.9986 27.1595H38.0824V42.5844C38.0824 44.0103 36.9256 45.167 35.4998 45.167H18.2574C16.9238 45.167 15.8235 44.1524 15.688 42.8545C15.6692 42.6775 15.6739 42.8293 15.6739 40.031H16.8127C17.5911 40.031 18.2244 39.3975 18.2244 38.6192V36.1628H10.2979V38.6192C10.2979 39.3975 10.9313 40.031 11.7097 40.031H12.8409C12.8409 42.8365 12.8387 42.6868 12.8475 42.8545C12.9887 45.7148 15.3605 47.9999 18.2574 47.9999H35.4988C38.4899 47.9999 40.9153 45.5745 40.9153 42.5834V27.1595H40.9981C42.6555 27.1595 43.9986 25.8164 43.9986 24.16V20.3491C43.9986 20.0884 43.7868 19.8766 43.5262 19.8766Z" fill="#5856D6"/>
</svg>
