<svg width="48" height="48" viewBox="0 0 48 48" fill="none" xmlns="http://www.w3.org/2000/svg">
<path d="M31.9992 0.375H16.0493C13.3377 0.375 11.0337 2.586 11.0337 5.29688V42.6716C11.0337 45.3825 13.289 47.5879 16.0006 47.5879L31.9767 47.5706C34.688 47.5706 36.9061 45.3649 36.9061 42.6536L36.9293 5.29425C36.929 2.57363 34.7217 0.375 31.9992 0.375ZM21.7201 3.32588H26.3476C26.7541 3.32588 27.0852 3.65588 27.0852 4.0635C27.0852 4.47113 26.7541 4.80113 26.3476 4.80113H21.7201C21.3125 4.80113 20.9825 4.47113 20.9825 4.0635C20.9825 3.65588 21.3125 3.32588 21.7201 3.32588ZM18.9395 3.56063C19.2128 3.28763 19.7105 3.28387 19.9835 3.56063C20.1203 3.69712 20.2013 3.88875 20.2013 4.0845C20.2013 4.2765 20.1203 4.46775 19.9835 4.60463C19.8473 4.7415 19.655 4.82212 19.4633 4.82212C19.268 4.82212 19.0801 4.7415 18.9395 4.60463C18.8033 4.46813 18.7257 4.2765 18.7257 4.0845C18.7253 3.88875 18.8033 3.69712 18.9395 3.56063ZM23.885 46.1257C22.6677 46.1257 21.6777 45.135 21.6777 43.9181C21.6777 42.7009 22.6677 41.7105 23.885 41.7105C25.1022 41.7105 26.0922 42.7009 26.0922 43.9181C26.0922 45.135 25.1018 46.1257 23.885 46.1257ZM34.6396 40.2101H13.6156V7.38337H34.6396V40.2101Z" fill="#5856D6"/>
</svg>
