<svg width="48" height="48" viewBox="0 0 48 48" fill="none" xmlns="http://www.w3.org/2000/svg">
<path d="M24.0455 28.7998C22.155 28.7998 20.617 30.3379 20.617 32.2285C20.617 34.119 22.155 35.6571 24.0455 35.6571C25.9361 35.6571 27.4742 34.119 27.4742 32.2285C27.4742 30.3379 25.936 28.7998 24.0455 28.7998Z" fill="#5856D6"/>
<path d="M24.0457 12.3426C22.9114 12.3426 21.9884 13.2654 21.9884 14.3998C21.9884 15.5342 22.9111 16.4569 24.0457 16.4569C25.1799 16.4569 26.1028 15.5342 26.1028 14.3998C26.1028 13.2654 25.1799 12.3426 24.0457 12.3426Z" fill="#5856D6"/>
<path d="M40.5027 0H7.58842C6.45251 0 5.53125 0.921032 5.53125 2.05717V45.9428C5.53125 47.079 6.4524 48 7.58842 48H40.5027C41.6389 48 42.5599 47.079 42.5599 45.9428V2.05717C42.5599 0.921032 41.6389 0 40.5027 0ZM24.0456 8.22853C27.4486 8.22853 30.2169 10.9972 30.2169 14.3999C30.2169 17.8027 27.4488 20.5713 24.0456 20.5713C20.6427 20.5713 17.8742 17.8027 17.8742 14.3999C17.8741 10.9972 20.6428 8.22853 24.0456 8.22853ZM24.0456 39.7715C19.8866 39.7715 16.5028 36.3878 16.5028 32.2286C16.5028 28.0696 19.8865 24.6859 24.0456 24.6859C28.2049 24.6859 31.5884 28.0696 31.5884 32.2286C31.5884 36.3878 28.2048 39.7715 24.0456 39.7715Z" fill="#5856D6"/>
</svg>
