<svg width="48" height="48" viewBox="0 0 48 48" fill="none" xmlns="http://www.w3.org/2000/svg">
<g clip-path="url(#clip0)">
<path d="M35.0769 17.0769H48V11.0769C48 7.25954 44.8943 4.15388 41.0769 4.15388H6.92306C3.10566 4.15388 0 7.25954 0 11.0769V36.9231C0 40.7405 3.10566 43.8461 6.92306 43.8461H41.0769C44.8943 43.8461 48 40.7405 48 36.9231V30.9231H35.0769C31.2595 30.9231 28.1539 27.8174 28.1539 24C28.1539 20.1826 31.2595 17.0769 35.0769 17.0769Z" fill="#5856D6"/>
<path d="M35.077 19.8462C32.7866 19.8462 30.9231 21.7096 30.9231 24.0001C30.9231 26.2906 32.7865 28.154 35.077 28.154H48.0001V19.8463H35.077V19.8462ZM36.9231 25.3847H35.077C34.3123 25.3847 33.6924 24.7647 33.6924 24.0001C33.6924 23.2355 34.3124 22.6155 35.077 22.6155H36.9231C37.6878 22.6155 38.3077 23.2355 38.3077 24.0001C38.3077 24.7647 37.6878 25.3847 36.9231 25.3847Z" fill="#5856D6"/>
</g>
<defs>
<clipPath id="clip0">
<rect width="48" height="48" fill="white"/>
</clipPath>
</defs>
</svg>
